<svg width="477" height="178" viewBox="0 0 477 178" fill="none" xmlns="http://www.w3.org/2000/svg">
<path d="M227.92 4.62088V43.9029H222.965V4.62088H209.309V0.0419922H241.455V4.62088H227.92Z" fill="white"/>
<path d="M258.375 12.0901C261.759 12.0901 264.659 12.9336 267.076 14.5C269.493 16.187 271.306 18.3559 272.514 21.2479C272.998 22.4528 273.36 23.8988 273.481 25.4653C273.602 27.0317 273.481 28.3572 273.119 29.3212H247.016C247.016 32.5746 248.103 35.2255 250.279 37.1535C252.454 39.0814 255.354 40.0454 258.859 40.1659C262.847 40.1659 266.472 39.0814 269.735 36.792L272.152 39.5634C268.043 42.6963 263.693 44.3833 258.859 44.3833C254.025 44.3833 250.037 42.8168 247.016 39.9249C243.995 36.9125 242.424 33.0566 242.424 28.3572C242.424 23.7783 243.874 19.9224 246.895 16.91C249.795 13.6565 253.662 12.0901 258.375 12.0901ZM258.375 16.3075C255.233 16.3075 252.696 17.2715 250.641 19.1994C248.587 21.1274 247.499 23.4168 247.257 26.1882H269.01C269.131 25.1038 268.889 23.8988 268.285 22.5733C267.439 20.6454 266.23 19.0789 264.538 17.9944C262.726 16.91 260.792 16.3075 258.375 16.3075Z" fill="white"/>
<path d="M287.858 0.0415039H283.266V43.9024H287.858V0.0415039Z" fill="white"/>
<path d="M313.472 12.0901C316.856 12.0901 319.756 12.9336 322.173 14.5C324.59 16.187 326.403 18.3559 327.611 21.2479C328.095 22.4528 328.457 23.8988 328.578 25.4653C328.699 27.0317 328.578 28.3572 328.215 29.3212H302.113C302.113 32.5746 303.2 35.2255 305.375 37.1535C307.551 39.0814 310.451 40.0454 313.956 40.1659C317.943 40.1659 321.569 39.0814 324.832 36.792L327.249 39.5634C323.14 42.6963 318.789 44.3833 313.956 44.3833C309.122 44.3833 305.134 42.8168 302.113 39.9249C299.091 36.9125 297.52 33.0566 297.52 28.3572C297.52 23.7783 298.971 19.9224 301.992 16.91C304.892 13.6565 308.759 12.0901 313.472 12.0901ZM313.472 16.3075C310.33 16.3075 307.792 17.2715 305.738 19.1994C303.684 21.1274 302.596 23.4168 302.354 26.1882H324.107C324.228 25.1038 323.986 23.8988 323.382 22.5733C322.536 20.6454 321.327 19.0789 319.635 17.9944C317.823 16.91 315.768 16.3075 313.472 16.3075Z" fill="white"/>
<path d="M349.002 12.0901H349.727C352.144 12.0901 354.44 12.5721 356.736 13.6565C359.032 14.741 360.845 16.187 362.053 17.8739L359.395 20.2839C358.428 18.9584 356.978 17.7534 355.165 16.91C353.352 16.0665 351.54 15.705 349.848 15.705H349.243C347.068 15.705 345.255 16.187 343.805 17.0305C342.355 17.8739 341.63 19.1994 341.63 20.6454C341.63 21.9708 342.113 22.9348 343.08 23.7783C344.047 24.5013 345.739 25.1038 348.397 25.3448L352.144 25.7063C353.594 25.8267 354.923 26.0677 356.011 26.4292C357.098 26.7907 358.186 27.2727 359.274 27.8752C360.361 28.4777 361.207 29.4417 361.811 30.6466C362.416 31.8516 362.657 33.2976 362.657 34.864C362.657 37.6355 361.57 39.9249 359.274 41.6119C356.978 43.2988 354.077 44.1423 350.452 44.2628H349.969C346.947 44.2628 344.168 43.6603 341.63 42.4553C338.971 41.2504 337.159 39.8044 336.071 37.8765L338.73 35.346C339.576 36.792 341.147 37.997 343.201 38.9609C345.376 39.9249 347.552 40.4069 349.848 40.4069H350.089C352.385 40.4069 354.319 39.9249 355.769 38.9609C357.219 37.997 358.065 36.6715 358.065 34.9845C358.065 33.6591 357.703 32.4541 356.978 31.7311C356.253 30.8876 355.527 30.4056 354.561 30.1646C353.715 29.9237 352.506 29.6827 351.177 29.5622L347.552 29.2007C340.422 28.4777 336.917 25.7063 336.917 20.8864C336.917 18.1149 338.005 15.946 340.301 14.3795C342.839 12.9336 345.618 12.0901 349.002 12.0901Z" fill="white"/>
<path d="M386.589 12.0901C389.973 12.0901 392.873 12.9336 395.29 14.5C397.707 16.187 399.52 18.3559 400.728 21.2479C401.212 22.4528 401.574 23.8988 401.695 25.4653C401.816 27.0317 401.695 28.3572 401.333 29.3212H375.23C375.23 32.5746 376.317 35.2255 378.493 37.1535C380.668 39.0814 383.568 40.0454 387.073 40.1659C391.061 40.1659 394.686 39.0814 397.949 36.792L400.366 39.5634C396.257 42.6963 391.907 44.3833 387.073 44.3833C382.239 44.3833 378.251 42.8168 375.23 39.9249C372.209 36.9125 370.638 33.0566 370.638 28.3572C370.638 23.7783 372.088 19.9224 375.109 16.91C378.009 13.6565 381.876 12.0901 386.589 12.0901ZM386.589 16.3075C383.447 16.3075 380.91 17.2715 378.855 19.1994C376.801 21.1274 375.713 23.4168 375.471 26.1882H397.224C397.345 25.1038 397.103 23.8988 396.499 22.5733C395.653 20.6454 394.444 19.0789 392.752 17.9944C391.061 16.91 389.006 16.3075 386.589 16.3075Z" fill="white"/>
<path d="M427.203 12.0901C431.433 12.0901 434.816 13.4156 437.233 16.0665C439.65 18.7174 440.859 22.3323 440.859 27.0317V43.9013H436.387V27.1522C436.387 23.5373 435.541 20.8864 433.729 19.0789C432.037 17.2715 429.62 16.428 426.599 16.428C423.336 16.428 420.677 17.5125 418.744 19.6814C416.81 21.8503 415.843 24.9833 415.843 28.9597V43.9013H411.251V12.5721H414.514L414.756 19.6814C415.964 17.151 417.656 15.223 419.952 14.018C422.127 12.6926 424.544 12.0901 427.203 12.0901Z" fill="white"/>
<path d="M463.221 12.0901H463.946C466.363 12.0901 468.659 12.5721 470.955 13.6565C473.251 14.741 475.064 16.187 476.272 17.8739L473.614 20.2839C472.647 18.9584 471.197 17.7534 469.384 16.91C467.571 16.0665 465.759 15.705 464.067 15.705H463.583C461.408 15.705 459.595 16.187 458.145 17.0305C456.695 17.8739 455.97 19.1994 455.97 20.6454C455.97 21.9708 456.453 22.9348 457.42 23.7783C458.387 24.5013 460.079 25.1038 462.737 25.3448L466.484 25.7063C467.934 25.8268 469.263 26.0677 470.351 26.4292C471.438 26.7907 472.526 27.2727 473.614 27.8752C474.701 28.4777 475.547 29.4417 476.151 30.6466C476.756 31.8516 476.997 33.2976 476.997 34.864C476.997 37.6355 475.91 39.9249 473.614 41.6119C471.317 43.2988 468.417 44.1423 464.792 44.2628H464.308C461.287 44.2628 458.508 43.6603 455.97 42.4553C453.311 41.2504 451.499 39.8044 450.411 37.8765L453.07 35.346C453.916 36.792 455.487 37.997 457.541 38.9609C459.716 39.9249 461.891 40.4069 464.188 40.4069H464.429C466.725 40.4069 468.659 39.9249 470.109 38.9609C471.559 37.997 472.405 36.6715 472.405 34.9845C472.405 33.6591 472.043 32.4541 471.317 31.7311C470.592 30.8876 469.867 30.4056 468.901 30.1646C468.055 29.9237 466.846 29.6827 465.517 29.5622L461.891 29.2007C454.761 28.4777 451.257 25.7063 451.257 20.8864C451.257 18.1149 452.345 15.946 454.641 14.3795C457.058 12.9336 459.837 12.0901 463.221 12.0901Z" fill="white"/>
<path d="M228.882 76.7973C227.07 76.7973 225.499 76.1949 224.29 74.9899C223.082 73.7849 222.478 72.2185 222.478 70.411C222.478 68.6035 223.082 67.0371 224.29 65.8321C225.499 64.6271 227.07 64.0247 228.882 64.0247C230.333 64.0247 231.662 64.3861 232.75 65.1091V67.0371C231.662 66.3141 230.333 65.8321 229.003 65.8321C227.674 65.8321 226.586 66.3141 225.74 67.1576C224.894 68.0011 224.411 69.0855 224.411 70.411C224.411 71.7365 224.894 72.8209 225.74 73.6644C226.586 74.5079 227.674 74.8694 228.882 74.8694C230.091 74.8694 231.178 74.5079 231.904 73.7849V69.3265H233.837V74.6284C233.354 75.2309 232.629 75.7129 231.783 76.0744C230.816 76.5563 229.849 76.7973 228.882 76.7973Z" fill="white"/>
<path d="M249.3 76.5571H240.72V64.2664H242.653V74.7496H249.3V76.5571Z" fill="white"/>
<path d="M265.033 74.9899C263.825 76.1949 262.375 76.7973 260.562 76.7973C258.749 76.7973 257.299 76.1949 256.091 74.9899C254.882 73.7849 254.278 72.2185 254.278 70.411C254.278 68.6035 254.882 67.0371 256.091 65.8321C257.299 64.6271 258.749 64.0247 260.562 64.0247C262.375 64.0247 263.825 64.6271 265.033 65.8321C266.242 67.0371 266.846 68.6035 266.846 70.411C266.846 72.2185 266.242 73.6644 265.033 74.9899ZM257.42 73.6644C258.266 74.5079 259.233 74.9899 260.441 74.9899C261.65 74.9899 262.737 74.5079 263.462 73.6644C264.308 72.8209 264.671 71.7365 264.671 70.411C264.671 69.0855 264.308 68.0011 263.462 67.1576C262.616 66.3141 261.65 65.8321 260.441 65.8321C259.233 65.8321 258.145 66.3141 257.42 67.1576C256.574 68.0011 256.212 69.0855 256.212 70.411C256.212 71.7365 256.695 72.8209 257.42 73.6644Z" fill="white"/>
<path d="M279.77 76.5571H273.728V64.2664H279.286C280.374 64.2664 281.341 64.5073 281.945 65.1098C282.549 65.5918 282.912 66.4353 282.912 67.2788C282.912 67.8813 282.791 68.3633 282.429 68.8452C282.066 69.3272 281.703 69.5682 281.22 69.8092C281.945 69.9297 282.67 70.2912 283.154 70.8937C283.637 71.4962 283.879 72.2192 283.879 73.0626C283.879 74.1471 283.516 74.9906 282.791 75.5931C282.066 76.1956 280.978 76.5571 279.77 76.5571ZM275.661 65.9533V69.0862H279.045C279.649 69.0862 280.253 68.9657 280.616 68.7247C280.978 68.4838 281.099 68.0018 281.099 67.5198C281.099 67.0378 280.978 66.5558 280.616 66.3148C280.253 66.0738 279.77 65.9533 279.045 65.9533H275.661ZM275.661 70.8937V74.7496H279.407C280.132 74.7496 280.737 74.6291 281.22 74.2676C281.703 73.9061 281.824 73.4241 281.824 72.8216C281.824 72.2192 281.583 71.7372 281.22 71.3757C280.737 71.0142 280.253 70.8937 279.407 70.8937H275.661Z" fill="white"/>
<path d="M291.473 76.5555H289.418L294.857 64.1443H296.669L302.107 76.5555H300.053L298.724 73.5431H292.802L291.473 76.5555ZM295.702 66.5542L293.406 71.7356H297.878L295.702 66.5542Z" fill="white"/>
<path d="M316.73 76.5571H308.15V64.2664H310.205V74.7496H316.73V76.5571Z" fill="white"/>
<path d="M343.456 76.7973C341.523 76.7973 340.073 76.3154 338.864 75.4719V73.4234C339.348 73.9054 340.073 74.2669 340.919 74.5079C341.765 74.8694 342.611 74.9899 343.456 74.9899C344.302 74.9899 345.027 74.8694 345.511 74.5079C345.994 74.1464 346.357 73.7849 346.357 73.1824C346.357 72.7004 346.236 72.339 345.753 72.098C345.632 71.9775 345.39 71.857 345.148 71.7365C344.786 71.616 344.182 71.375 343.456 71.134L343.215 71.0135C342.49 70.7725 342.006 70.652 341.644 70.5315C341.281 70.411 340.919 70.17 340.435 69.929C339.589 69.447 339.106 68.6035 339.106 67.3986C339.106 66.4346 339.469 65.5911 340.314 64.9886C341.16 64.3861 342.248 64.0247 343.577 64.0247C345.027 64.0247 346.357 64.3861 347.565 64.9886V66.9166C346.357 66.1936 345.027 65.7116 343.698 65.7116C342.852 65.7116 342.248 65.8321 341.765 66.1936C341.281 66.4346 341.16 66.9166 341.16 67.2781C341.16 67.6396 341.402 68.0011 341.885 68.3626C342.006 68.3626 342.006 68.483 342.127 68.483C342.248 68.483 342.369 68.6035 342.611 68.6035C342.852 68.6035 342.852 68.724 342.973 68.724L344.423 69.0855C345.269 69.3265 345.994 69.688 346.719 70.0495C347.807 70.652 348.411 71.616 348.411 72.9414C348.411 74.0259 347.928 74.9899 347.082 75.5924C345.873 76.4359 344.786 76.7973 343.456 76.7973Z" fill="white"/>
<path d="M364.964 74.9899C363.755 76.1949 362.305 76.7973 360.492 76.7973C358.68 76.7973 357.23 76.1949 356.021 74.9899C354.813 73.7849 354.208 72.2185 354.208 70.411C354.208 68.6035 354.813 67.0371 356.021 65.8321C357.23 64.6271 358.68 64.0247 360.492 64.0247C362.305 64.0247 363.755 64.6271 364.964 65.8321C366.172 67.0371 366.777 68.6035 366.777 70.411C366.777 72.2185 366.172 73.6644 364.964 74.9899ZM357.471 73.6644C358.317 74.5079 359.284 74.9899 360.492 74.9899C361.701 74.9899 362.789 74.5079 363.514 73.6644C364.36 72.8209 364.722 71.7365 364.722 70.411C364.722 69.0855 364.36 68.0011 363.514 67.1576C362.668 66.3141 361.701 65.8321 360.492 65.8321C359.284 65.8321 358.196 66.3141 357.471 67.1576C356.625 68.0011 356.263 69.0855 356.263 70.411C356.263 71.7365 356.625 72.8209 357.471 73.6644Z" fill="white"/>
<path d="M382.116 76.5571H373.657V64.2664H375.59V74.7496H382.116V76.5571Z" fill="white"/>
<path d="M388.281 71.3757V64.2664H390.215V71.4962C390.215 72.5807 390.457 73.5446 391.061 74.1471C391.665 74.7496 392.39 75.1111 393.478 75.1111C394.566 75.1111 395.291 74.7496 395.895 74.1471C396.499 73.5446 396.741 72.7012 396.741 71.4962V64.2664H398.674V71.3757C398.674 73.0626 398.191 74.3881 397.224 75.3521C396.257 76.3161 395.049 76.7981 393.478 76.7981C391.907 76.7981 390.698 76.3161 389.732 75.3521C388.765 74.3881 388.281 73.0626 388.281 71.3757Z" fill="white"/>
<path d="M404.712 65.9533V64.2664H414.863V65.9533H410.754V76.5571H408.821V65.9533H404.712Z" fill="white"/>
<path d="M423.2 64.2664H421.267V76.5571H423.2V64.2664Z" fill="white"/>
<path d="M440.968 74.9899C439.76 76.1949 438.31 76.7973 436.497 76.7973C434.684 76.7973 433.234 76.1949 432.026 74.9899C430.817 73.7849 430.213 72.2185 430.213 70.411C430.213 68.6035 430.817 67.0371 432.026 65.8321C433.234 64.6271 434.684 64.0247 436.497 64.0247C438.31 64.0247 439.76 64.6271 440.968 65.8321C442.177 67.0371 442.781 68.6035 442.781 70.411C442.781 72.2185 442.177 73.6644 440.968 74.9899ZM433.355 73.6644C434.201 74.5079 435.168 74.9899 436.376 74.9899C437.584 74.9899 438.672 74.5079 439.397 73.6644C440.243 72.8209 440.606 71.7365 440.606 70.411C440.606 69.0855 440.243 68.0011 439.397 67.1576C438.551 66.3141 437.584 65.8321 436.376 65.8321C435.168 65.8321 434.08 66.3141 433.355 67.1576C432.509 68.0011 432.146 69.0855 432.146 70.411C432.146 71.7365 432.509 72.8209 433.355 73.6644Z" fill="white"/>
<path d="M451.47 76.5571H449.536V64.2664H451.228L458.237 73.1831V64.2664H460.171V76.5571H458.479L451.47 67.6403V76.5571Z" fill="white"/>
<path d="M471.305 76.7973C469.371 76.7973 467.921 76.3154 466.713 75.4719V73.4234C467.196 73.9054 467.921 74.2669 468.767 74.5079C469.613 74.8694 470.459 74.9899 471.305 74.9899C472.151 74.9899 472.876 74.8694 473.359 74.5079C473.842 74.1464 474.205 73.7849 474.205 73.1824C474.205 72.7004 474.084 72.339 473.601 72.098C473.48 71.9775 473.238 71.857 472.997 71.7365C472.634 71.616 472.03 71.375 471.305 71.134L471.063 71.0135C470.338 70.7725 469.855 70.652 469.492 70.5315C469.129 70.411 468.767 70.17 468.284 69.929C467.438 69.447 466.954 68.6035 466.954 67.3986C466.954 66.4346 467.317 65.5911 468.163 64.9886C469.009 64.3861 470.096 64.0247 471.426 64.0247C472.876 64.0247 474.205 64.3861 475.413 64.9886V66.9166C474.205 66.1936 472.876 65.7116 471.546 65.7116C470.7 65.7116 470.096 65.8321 469.613 66.1936C469.129 66.4346 469.009 66.9166 469.009 67.2781C469.009 67.6396 469.25 68.0011 469.734 68.3626C469.855 68.3626 469.855 68.483 469.975 68.483C470.096 68.483 470.217 68.6035 470.459 68.6035C470.7 68.6035 470.7 68.724 470.821 68.724L472.271 69.0855C473.117 69.3265 473.842 69.688 474.568 70.0495C475.655 70.652 476.259 71.616 476.259 72.9414C476.259 74.0259 475.776 74.9899 474.93 75.5924C473.722 76.4359 472.634 76.7973 471.305 76.7973Z" fill="white"/>
<path fill-rule="evenodd" clip-rule="evenodd" d="M129.434 1.84937L129.916 1.96986C129.795 1.84937 129.554 1.84937 129.434 1.84937Z" fill="#03A65A"/>
<path fill-rule="evenodd" clip-rule="evenodd" d="M5.55859 54.2649C5.80023 54.6264 6.16269 54.8674 6.52515 55.2289C6.16269 54.9879 5.80023 54.6264 5.55859 54.2649Z" fill="#03A65A"/>
<path fill-rule="evenodd" clip-rule="evenodd" d="M123.033 10.0414C143.214 9.55944 160.858 11.2464 171.251 14.2588C161.22 8.71596 147.444 4.49856 131.371 2.08862C122.67 5.58304 119.166 8.83646 123.033 10.0414Z" fill="#03A65A"/>
<path fill-rule="evenodd" clip-rule="evenodd" d="M3.51356 51.734C3.27256 51.3725 3.15207 51.1315 2.91107 50.77C3.03157 51.1315 3.27256 51.3725 3.51356 51.734Z" fill="#03A65A"/>
<path fill-rule="evenodd" clip-rule="evenodd" d="M177.775 18.4776C168.711 14.0192 145.63 11.7297 119.648 13.2962C87.2607 15.2241 62.2454 22.454 64.0581 29.3223C65.8708 35.9496 91.732 39.926 122.427 38.4801C121.098 38.6006 119.768 38.7211 118.439 38.7211C81.7017 40.89 50.1607 36.4316 48.1063 28.5993C46.052 20.8875 74.0884 12.6937 110.584 10.5248C112.759 7.99432 119.889 4.37941 129.074 1.84897C117.835 0.282507 105.629 -0.319978 92.6988 0.16201C40.8555 1.96947 -0.715738 20.6465 0.00934273 41.9745C0.130189 44.7459 0.976117 47.5174 2.42628 50.0478C9.31454 57.6391 36.1425 62.5795 68.5294 61.736C106.838 60.6515 138.741 51.8553 139.708 41.9745C140.554 32.5757 112.518 25.5869 76.2636 25.9484C77.8346 25.8279 79.4057 25.8279 80.9767 25.8279C124.24 24.6229 158.802 32.8167 157.714 43.9024C156.748 53.6627 129.315 62.459 93.5447 65.3509C91.1278 68.8453 84.3604 73.1832 75.2969 77.0391C81.8226 77.4006 88.4692 77.4006 95.3574 77.2801C147.322 75.4727 188.893 56.7956 188.168 35.4676C188.168 29.2018 184.421 23.4179 177.775 18.4776Z" fill="#03A65A"/>
<path fill-rule="evenodd" clip-rule="evenodd" d="M4.84348 53.5431C4.60249 53.1816 4.36149 52.8201 4 52.5791C4.36149 52.8201 4.60249 53.1816 4.84348 53.5431Z" fill="#03A65A"/>
<path fill-rule="evenodd" clip-rule="evenodd" d="M74.823 77.0379C73.494 76.9174 72.165 76.9174 70.8359 76.7969C72.165 76.9174 73.494 76.9174 74.823 77.0379Z" fill="#03A65A"/>
<path fill-rule="evenodd" clip-rule="evenodd" d="M76.6266 66.1952C46.6566 66.9182 20.9163 63.1828 8.5899 57.158C20.1912 67.2797 42.7895 74.5095 70.1009 76.6785C78.1976 71.9791 80.9771 67.8822 76.6266 66.1952Z" fill="#03A65A"/>
<path fill-rule="evenodd" clip-rule="evenodd" d="M8.23683 56.9147C7.87436 56.5532 7.5119 56.3122 7.27026 55.9507C7.63272 56.3122 7.87436 56.6737 8.23683 56.9147Z" fill="#03A65A"/>
<path d="M6.28418 172H4.86035V162.842C4.86035 162.08 4.88379 161.359 4.93066 160.68C4.80762 160.803 4.66992 160.932 4.51758 161.066C4.36523 161.201 3.66797 161.772 2.42578 162.78L1.65234 161.778L5.05371 159.15H6.28418V172ZM19.626 164.635C19.626 169.662 17.6807 172.176 13.79 172.176C13.1104 172.176 12.5713 172.117 12.1729 172V170.743C12.6416 170.896 13.1748 170.972 13.7725 170.972C15.1787 170.972 16.2393 170.538 16.9541 169.671C17.6748 168.798 18.0674 167.462 18.1318 165.663H18.0264C17.7041 166.149 17.2764 166.521 16.7432 166.779C16.21 167.031 15.6094 167.157 14.9414 167.157C13.8047 167.157 12.9023 166.817 12.2344 166.138C11.5664 165.458 11.2324 164.509 11.2324 163.29C11.2324 161.954 11.6045 160.899 12.3486 160.126C13.0986 159.353 14.083 158.966 15.3018 158.966C16.1748 158.966 16.9365 159.191 17.5869 159.643C18.2432 160.088 18.7471 160.741 19.0986 161.603C19.4502 162.458 19.626 163.469 19.626 164.635ZM15.3018 160.214C14.4639 160.214 13.8164 160.483 13.3594 161.022C12.9023 161.562 12.6738 162.312 12.6738 163.272C12.6738 164.116 12.8848 164.781 13.3066 165.268C13.7285 165.748 14.3701 165.988 15.2314 165.988C15.7646 165.988 16.2539 165.88 16.6992 165.663C17.1504 165.446 17.5049 165.15 17.7627 164.775C18.0205 164.4 18.1494 164.008 18.1494 163.598C18.1494 162.982 18.0293 162.414 17.7891 161.893C17.5488 161.371 17.2119 160.961 16.7783 160.662C16.3506 160.363 15.8584 160.214 15.3018 160.214ZM29.9268 164.635C29.9268 169.662 27.9814 172.176 24.0908 172.176C23.4111 172.176 22.8721 172.117 22.4736 172V170.743C22.9424 170.896 23.4756 170.972 24.0732 170.972C25.4795 170.972 26.54 170.538 27.2549 169.671C27.9756 168.798 28.3682 167.462 28.4326 165.663H28.3271C28.0049 166.149 27.5771 166.521 27.0439 166.779C26.5107 167.031 25.9102 167.157 25.2422 167.157C24.1055 167.157 23.2031 166.817 22.5352 166.138C21.8672 165.458 21.5332 164.509 21.5332 163.29C21.5332 161.954 21.9053 160.899 22.6494 160.126C23.3994 159.353 24.3838 158.966 25.6025 158.966C26.4756 158.966 27.2373 159.191 27.8877 159.643C28.5439 160.088 29.0479 160.741 29.3994 161.603C29.751 162.458 29.9268 163.469 29.9268 164.635ZM25.6025 160.214C24.7646 160.214 24.1172 160.483 23.6602 161.022C23.2031 161.562 22.9746 162.312 22.9746 163.272C22.9746 164.116 23.1855 164.781 23.6074 165.268C24.0293 165.748 24.6709 165.988 25.5322 165.988C26.0654 165.988 26.5547 165.88 27 165.663C27.4512 165.446 27.8057 165.15 28.0635 164.775C28.3213 164.4 28.4502 164.008 28.4502 163.598C28.4502 162.982 28.3301 162.414 28.0898 161.893C27.8496 161.371 27.5127 160.961 27.0791 160.662C26.6514 160.363 26.1592 160.214 25.6025 160.214ZM36.0352 158.966C37.207 158.966 38.1357 159.238 38.8213 159.783C39.5068 160.328 39.8496 161.081 39.8496 162.042C39.8496 162.675 39.6533 163.252 39.2607 163.773C38.8682 164.295 38.2412 164.77 37.3799 165.197C38.4229 165.695 39.1641 166.22 39.6035 166.771C40.043 167.315 40.2627 167.948 40.2627 168.669C40.2627 169.735 39.8906 170.588 39.1465 171.227C38.4023 171.859 37.3828 172.176 36.0879 172.176C34.7168 172.176 33.6621 171.877 32.9238 171.279C32.1855 170.676 31.8164 169.823 31.8164 168.722C31.8164 167.251 32.7129 166.105 34.5059 165.285C33.6973 164.828 33.1172 164.336 32.7656 163.809C32.4141 163.275 32.2383 162.681 32.2383 162.024C32.2383 161.093 32.5811 160.352 33.2666 159.801C33.958 159.244 34.8809 158.966 36.0352 158.966ZM33.2578 168.757C33.2578 169.46 33.501 170.008 33.9873 170.4C34.4795 170.793 35.168 170.989 36.0527 170.989C36.9258 170.989 37.6055 170.784 38.0918 170.374C38.5781 169.964 38.8213 169.401 38.8213 168.687C38.8213 168.118 38.5928 167.614 38.1357 167.175C37.6787 166.729 36.8818 166.299 35.7451 165.883C34.8721 166.258 34.2393 166.674 33.8467 167.131C33.4541 167.582 33.2578 168.124 33.2578 168.757ZM36.0176 160.152C35.2852 160.152 34.7109 160.328 34.2949 160.68C33.8789 161.031 33.6709 161.5 33.6709 162.086C33.6709 162.625 33.8438 163.088 34.1895 163.475C34.5352 163.861 35.1738 164.248 36.1055 164.635C36.9434 164.283 37.5352 163.905 37.8809 163.501C38.2324 163.097 38.4082 162.625 38.4082 162.086C38.4082 161.494 38.1943 161.025 37.7666 160.68C37.3447 160.328 36.7617 160.152 36.0176 160.152ZM46.6172 167.843V166.507H50.9326V167.843H46.6172ZM65.6807 172H57.2344V170.743L60.6182 167.342C61.6494 166.299 62.3291 165.555 62.6572 165.109C62.9854 164.664 63.2314 164.23 63.3955 163.809C63.5596 163.387 63.6416 162.933 63.6416 162.446C63.6416 161.761 63.4336 161.219 63.0176 160.82C62.6016 160.416 62.0244 160.214 61.2861 160.214C60.7529 160.214 60.2461 160.302 59.7656 160.478C59.291 160.653 58.7607 160.973 58.1748 161.436L57.4014 160.442C58.585 159.458 59.874 158.966 61.2686 158.966C62.4756 158.966 63.4219 159.276 64.1074 159.897C64.793 160.513 65.1357 161.342 65.1357 162.385C65.1357 163.199 64.9072 164.005 64.4502 164.802C63.9932 165.599 63.1377 166.606 61.8838 167.825L59.0713 170.576V170.646H65.6807V172ZM76.0518 165.558C76.0518 167.778 75.7002 169.437 74.9971 170.532C74.2998 171.628 73.2305 172.176 71.7891 172.176C70.4062 172.176 69.3545 171.616 68.6338 170.497C67.9131 169.372 67.5527 167.726 67.5527 165.558C67.5527 163.319 67.9014 161.658 68.5986 160.574C69.2959 159.49 70.3594 158.948 71.7891 158.948C73.1836 158.948 74.2412 159.514 74.9619 160.645C75.6885 161.775 76.0518 163.413 76.0518 165.558ZM69.0293 165.558C69.0293 167.427 69.249 168.789 69.6885 169.645C70.1279 170.494 70.8281 170.919 71.7891 170.919C72.7617 170.919 73.4648 170.488 73.8984 169.627C74.3379 168.76 74.5576 167.403 74.5576 165.558C74.5576 163.712 74.3379 162.361 73.8984 161.506C73.4648 160.645 72.7617 160.214 71.7891 160.214C70.8281 160.214 70.1279 160.639 69.6885 161.488C69.249 162.332 69.0293 163.688 69.0293 165.558ZM86.2822 172H77.8359V170.743L81.2197 167.342C82.251 166.299 82.9307 165.555 83.2588 165.109C83.5869 164.664 83.833 164.23 83.9971 163.809C84.1611 163.387 84.2432 162.933 84.2432 162.446C84.2432 161.761 84.0352 161.219 83.6191 160.82C83.2031 160.416 82.626 160.214 81.8877 160.214C81.3545 160.214 80.8477 160.302 80.3672 160.478C79.8926 160.653 79.3623 160.973 78.7764 161.436L78.0029 160.442C79.1865 159.458 80.4756 158.966 81.8701 158.966C83.0771 158.966 84.0234 159.276 84.709 159.897C85.3945 160.513 85.7373 161.342 85.7373 162.385C85.7373 163.199 85.5088 164.005 85.0518 164.802C84.5947 165.599 83.7393 166.606 82.4854 167.825L79.6729 170.576V170.646H86.2822V172ZM93.542 172H92.1182V162.842C92.1182 162.08 92.1416 161.359 92.1885 160.68C92.0654 160.803 91.9277 160.932 91.7754 161.066C91.623 161.201 90.9258 161.772 89.6836 162.78L88.9102 161.778L92.3115 159.15H93.542V172ZM107.956 172H106.462V160.478H102.393V159.15H112.025V160.478H107.956V172ZM121.131 172H113.968V159.15H121.131V160.478H115.462V164.617H120.788V165.936H115.462V170.664H121.131V172ZM123.987 172V159.15H125.481V170.646H131.15V172H123.987ZM140.502 172H133.339V159.15H140.502V160.478H134.833V164.617H140.159V165.936H134.833V170.664H140.502V172ZM150.609 168.581C150.609 169.712 150.199 170.594 149.379 171.227C148.559 171.859 147.445 172.176 146.039 172.176C144.516 172.176 143.344 171.979 142.523 171.587V170.146C143.051 170.368 143.625 170.544 144.246 170.673C144.867 170.802 145.482 170.866 146.092 170.866C147.088 170.866 147.838 170.679 148.342 170.304C148.846 169.923 149.098 169.396 149.098 168.722C149.098 168.276 149.007 167.913 148.825 167.632C148.649 167.345 148.351 167.081 147.929 166.841C147.513 166.601 146.877 166.328 146.021 166.023C144.826 165.596 143.971 165.089 143.455 164.503C142.945 163.917 142.69 163.152 142.69 162.209C142.69 161.219 143.062 160.431 143.807 159.845C144.551 159.259 145.535 158.966 146.76 158.966C148.037 158.966 149.212 159.2 150.284 159.669L149.818 160.97C148.758 160.524 147.727 160.302 146.725 160.302C145.934 160.302 145.315 160.472 144.87 160.812C144.425 161.151 144.202 161.623 144.202 162.227C144.202 162.672 144.284 163.038 144.448 163.325C144.612 163.606 144.888 163.867 145.274 164.107C145.667 164.342 146.265 164.603 147.067 164.89C148.415 165.37 149.341 165.886 149.845 166.437C150.354 166.987 150.609 167.702 150.609 168.581ZM160.4 172H153.237V159.15H160.4V160.478H154.731V164.617H160.058V165.936H154.731V170.664H160.4V172ZM173.294 172H171.589L164.566 161.216H164.496C164.59 162.481 164.637 163.642 164.637 164.696V172H163.257V159.15H164.944L171.949 169.891H172.02C172.008 169.732 171.981 169.226 171.94 168.37C171.899 167.509 171.885 166.894 171.896 166.524V159.15H173.294V172ZM184.078 168.581C184.078 169.712 183.668 170.594 182.848 171.227C182.027 171.859 180.914 172.176 179.508 172.176C177.984 172.176 176.812 171.979 175.992 171.587V170.146C176.52 170.368 177.094 170.544 177.715 170.673C178.336 170.802 178.951 170.866 179.561 170.866C180.557 170.866 181.307 170.679 181.811 170.304C182.314 169.923 182.566 169.396 182.566 168.722C182.566 168.276 182.476 167.913 182.294 167.632C182.118 167.345 181.819 167.081 181.397 166.841C180.981 166.601 180.346 166.328 179.49 166.023C178.295 165.596 177.439 165.089 176.924 164.503C176.414 163.917 176.159 163.152 176.159 162.209C176.159 161.219 176.531 160.431 177.275 159.845C178.02 159.259 179.004 158.966 180.229 158.966C181.506 158.966 182.681 159.2 183.753 159.669L183.287 160.97C182.227 160.524 181.195 160.302 180.193 160.302C179.402 160.302 178.784 160.472 178.339 160.812C177.894 161.151 177.671 161.623 177.671 162.227C177.671 162.672 177.753 163.038 177.917 163.325C178.081 163.606 178.356 163.867 178.743 164.107C179.136 164.342 179.733 164.603 180.536 164.89C181.884 165.37 182.81 165.886 183.313 166.437C183.823 166.987 184.078 167.702 184.078 168.581ZM188.016 169.908L188.147 170.11C187.995 170.696 187.775 171.376 187.488 172.149C187.201 172.929 186.902 173.652 186.592 174.32H185.493C185.651 173.711 185.824 172.958 186.012 172.062C186.205 171.165 186.34 170.447 186.416 169.908H188.016ZM195.794 172V159.15H197.288V172H195.794ZM210.858 172H209.153L202.131 161.216H202.061C202.154 162.481 202.201 163.642 202.201 164.696V172H200.821V159.15H202.509L209.514 169.891H209.584C209.572 169.732 209.546 169.226 209.505 168.37C209.464 167.509 209.449 166.894 209.461 166.524V159.15H210.858V172ZM219.894 160.302C218.481 160.302 217.365 160.773 216.545 161.717C215.73 162.654 215.323 163.94 215.323 165.575C215.323 167.257 215.716 168.558 216.501 169.478C217.292 170.392 218.417 170.849 219.876 170.849C220.772 170.849 221.795 170.688 222.943 170.365V171.675C222.053 172.009 220.954 172.176 219.647 172.176C217.755 172.176 216.293 171.602 215.262 170.453C214.236 169.305 213.724 167.673 213.724 165.558C213.724 164.233 213.97 163.073 214.462 162.077C214.96 161.081 215.675 160.313 216.606 159.774C217.544 159.235 218.646 158.966 219.911 158.966C221.259 158.966 222.437 159.212 223.444 159.704L222.812 160.987C221.839 160.53 220.866 160.302 219.894 160.302ZM240.68 165.452C240.68 167.573 240.103 169.196 238.948 170.321C237.8 171.44 236.145 172 233.982 172H230.423V159.15H234.36C236.358 159.15 237.911 159.704 239.019 160.812C240.126 161.919 240.68 163.466 240.68 165.452ZM239.098 165.505C239.098 163.829 238.676 162.566 237.832 161.717C236.994 160.867 235.746 160.442 234.088 160.442H231.917V170.708H233.736C235.518 170.708 236.856 170.271 237.753 169.398C238.649 168.52 239.098 167.222 239.098 165.505ZM247.403 172.176C245.979 172.176 244.854 171.742 244.028 170.875C243.208 170.008 242.798 168.804 242.798 167.263C242.798 165.71 243.179 164.477 243.94 163.562C244.708 162.648 245.736 162.191 247.025 162.191C248.232 162.191 249.188 162.59 249.891 163.387C250.594 164.178 250.945 165.224 250.945 166.524V167.447H244.31C244.339 168.578 244.623 169.437 245.162 170.022C245.707 170.608 246.472 170.901 247.456 170.901C248.493 170.901 249.519 170.685 250.532 170.251V171.552C250.017 171.774 249.527 171.933 249.064 172.026C248.607 172.126 248.054 172.176 247.403 172.176ZM247.008 163.413C246.234 163.413 245.616 163.665 245.153 164.169C244.696 164.673 244.427 165.37 244.345 166.261H249.381C249.381 165.341 249.176 164.638 248.766 164.151C248.355 163.659 247.77 163.413 247.008 163.413ZM255.551 172L251.895 162.367H253.459L255.533 168.08C256.002 169.416 256.277 170.283 256.359 170.682H256.43C256.494 170.371 256.696 169.729 257.036 168.757C257.382 167.778 258.152 165.648 259.348 162.367H260.912L257.256 172H255.551ZM266.528 172.176C265.104 172.176 263.979 171.742 263.153 170.875C262.333 170.008 261.923 168.804 261.923 167.263C261.923 165.71 262.304 164.477 263.065 163.562C263.833 162.648 264.861 162.191 266.15 162.191C267.357 162.191 268.312 162.59 269.016 163.387C269.719 164.178 270.07 165.224 270.07 166.524V167.447H263.435C263.464 168.578 263.748 169.437 264.287 170.022C264.832 170.608 265.597 170.901 266.581 170.901C267.618 170.901 268.644 170.685 269.657 170.251V171.552C269.142 171.774 268.652 171.933 268.189 172.026C267.732 172.126 267.179 172.176 266.528 172.176ZM266.133 163.413C265.359 163.413 264.741 163.665 264.278 164.169C263.821 164.673 263.552 165.37 263.47 166.261H268.506C268.506 165.341 268.301 164.638 267.891 164.151C267.48 163.659 266.895 163.413 266.133 163.413ZM274.025 172H272.566V158.324H274.025V172ZM285.434 167.175C285.434 168.745 285.038 169.973 284.247 170.857C283.456 171.736 282.363 172.176 280.969 172.176C280.107 172.176 279.343 171.974 278.675 171.569C278.007 171.165 277.491 170.585 277.128 169.829C276.765 169.073 276.583 168.188 276.583 167.175C276.583 165.604 276.976 164.383 277.761 163.51C278.546 162.631 279.636 162.191 281.03 162.191C282.378 162.191 283.447 162.64 284.238 163.536C285.035 164.433 285.434 165.646 285.434 167.175ZM278.095 167.175C278.095 168.405 278.341 169.343 278.833 169.987C279.325 170.632 280.049 170.954 281.004 170.954C281.959 170.954 282.683 170.635 283.175 169.996C283.673 169.352 283.922 168.411 283.922 167.175C283.922 165.95 283.673 165.021 283.175 164.389C282.683 163.75 281.953 163.431 280.986 163.431C280.031 163.431 279.311 163.744 278.824 164.371C278.338 164.998 278.095 165.933 278.095 167.175ZM292.482 172.176C291.855 172.176 291.281 172.062 290.76 171.833C290.244 171.599 289.811 171.241 289.459 170.761H289.354C289.424 171.323 289.459 171.856 289.459 172.36V176.324H288V162.367H289.187L289.389 163.686H289.459C289.834 163.158 290.271 162.777 290.769 162.543C291.267 162.309 291.838 162.191 292.482 162.191C293.76 162.191 294.744 162.628 295.436 163.501C296.133 164.374 296.481 165.599 296.481 167.175C296.481 168.757 296.127 169.987 295.418 170.866C294.715 171.739 293.736 172.176 292.482 172.176ZM292.271 163.431C291.287 163.431 290.575 163.703 290.136 164.248C289.696 164.793 289.471 165.66 289.459 166.85V167.175C289.459 168.528 289.685 169.498 290.136 170.084C290.587 170.664 291.311 170.954 292.307 170.954C293.139 170.954 293.789 170.617 294.258 169.943C294.732 169.27 294.97 168.341 294.97 167.157C294.97 165.956 294.732 165.036 294.258 164.397C293.789 163.753 293.127 163.431 292.271 163.431ZM311.317 172V165.733C311.317 164.966 311.153 164.392 310.825 164.011C310.497 163.624 309.987 163.431 309.296 163.431C308.388 163.431 307.717 163.691 307.283 164.213C306.85 164.734 306.633 165.537 306.633 166.621V172H305.174V165.733C305.174 164.966 305.01 164.392 304.682 164.011C304.354 163.624 303.841 163.431 303.144 163.431C302.229 163.431 301.559 163.706 301.131 164.257C300.709 164.802 300.498 165.698 300.498 166.946V172H299.039V162.367H300.226L300.463 163.686H300.533C300.809 163.217 301.195 162.851 301.693 162.587C302.197 162.323 302.76 162.191 303.381 162.191C304.887 162.191 305.871 162.736 306.334 163.826H306.404C306.691 163.322 307.107 162.924 307.652 162.631C308.197 162.338 308.818 162.191 309.516 162.191C310.605 162.191 311.42 162.473 311.959 163.035C312.504 163.592 312.776 164.485 312.776 165.716V172H311.317ZM319.86 172.176C318.437 172.176 317.312 171.742 316.485 170.875C315.665 170.008 315.255 168.804 315.255 167.263C315.255 165.71 315.636 164.477 316.397 163.562C317.165 162.648 318.193 162.191 319.482 162.191C320.689 162.191 321.645 162.59 322.348 163.387C323.051 164.178 323.402 165.224 323.402 166.524V167.447H316.767C316.796 168.578 317.08 169.437 317.619 170.022C318.164 170.608 318.929 170.901 319.913 170.901C320.95 170.901 321.976 170.685 322.989 170.251V171.552C322.474 171.774 321.984 171.933 321.521 172.026C321.064 172.126 320.511 172.176 319.86 172.176ZM319.465 163.413C318.691 163.413 318.073 163.665 317.61 164.169C317.153 164.673 316.884 165.37 316.802 166.261H321.838C321.838 165.341 321.633 164.638 321.223 164.151C320.812 163.659 320.227 163.413 319.465 163.413ZM332.49 172V165.769C332.49 164.983 332.312 164.397 331.954 164.011C331.597 163.624 331.037 163.431 330.275 163.431C329.268 163.431 328.529 163.703 328.061 164.248C327.592 164.793 327.357 165.692 327.357 166.946V172H325.898V162.367H327.085L327.322 163.686H327.393C327.691 163.211 328.11 162.845 328.649 162.587C329.188 162.323 329.789 162.191 330.451 162.191C331.611 162.191 332.484 162.473 333.07 163.035C333.656 163.592 333.949 164.485 333.949 165.716V172H332.49ZM340.066 170.972C340.324 170.972 340.573 170.954 340.813 170.919C341.054 170.878 341.244 170.837 341.385 170.796V171.912C341.227 171.988 340.992 172.05 340.682 172.097C340.377 172.149 340.102 172.176 339.855 172.176C337.992 172.176 337.061 171.194 337.061 169.231V163.501H335.681V162.798L337.061 162.191L337.676 160.135H338.52V162.367H341.314V163.501H338.52V169.17C338.52 169.75 338.657 170.195 338.933 170.506C339.208 170.816 339.586 170.972 340.066 170.972ZM351.105 170.972C351.363 170.972 351.612 170.954 351.853 170.919C352.093 170.878 352.283 170.837 352.424 170.796V171.912C352.266 171.988 352.031 172.05 351.721 172.097C351.416 172.149 351.141 172.176 350.895 172.176C349.031 172.176 348.1 171.194 348.1 169.231V163.501H346.72V162.798L348.1 162.191L348.715 160.135H349.559V162.367H352.354V163.501H349.559V169.17C349.559 169.75 349.696 170.195 349.972 170.506C350.247 170.816 350.625 170.972 351.105 170.972ZM358.427 172.176C357.003 172.176 355.878 171.742 355.052 170.875C354.231 170.008 353.821 168.804 353.821 167.263C353.821 165.71 354.202 164.477 354.964 163.562C355.731 162.648 356.76 162.191 358.049 162.191C359.256 162.191 360.211 162.59 360.914 163.387C361.617 164.178 361.969 165.224 361.969 166.524V167.447H355.333C355.362 168.578 355.646 169.437 356.186 170.022C356.73 170.608 357.495 170.901 358.479 170.901C359.517 170.901 360.542 170.685 361.556 170.251V171.552C361.04 171.774 360.551 171.933 360.088 172.026C359.631 172.126 359.077 172.176 358.427 172.176ZM358.031 163.413C357.258 163.413 356.64 163.665 356.177 164.169C355.72 164.673 355.45 165.37 355.368 166.261H360.404C360.404 165.341 360.199 164.638 359.789 164.151C359.379 163.659 358.793 163.413 358.031 163.413ZM370.389 172L370.099 170.629H370.028C369.548 171.232 369.067 171.643 368.587 171.859C368.112 172.07 367.518 172.176 366.803 172.176C365.848 172.176 365.098 171.93 364.553 171.438C364.014 170.945 363.744 170.245 363.744 169.337C363.744 167.392 365.3 166.372 368.411 166.278L370.046 166.226V165.628C370.046 164.872 369.882 164.315 369.554 163.958C369.231 163.595 368.713 163.413 367.998 163.413C367.195 163.413 366.287 163.659 365.273 164.151L364.825 163.035C365.3 162.777 365.818 162.575 366.381 162.429C366.949 162.282 367.518 162.209 368.086 162.209C369.234 162.209 370.084 162.464 370.635 162.974C371.191 163.483 371.47 164.301 371.47 165.426V172H370.389ZM367.093 170.972C368.001 170.972 368.713 170.723 369.229 170.225C369.75 169.727 370.011 169.029 370.011 168.133V167.263L368.552 167.324C367.392 167.365 366.554 167.547 366.038 167.869C365.528 168.186 365.273 168.681 365.273 169.354C365.273 169.882 365.432 170.283 365.748 170.559C366.07 170.834 366.519 170.972 367.093 170.972ZM386.763 172V165.733C386.763 164.966 386.599 164.392 386.271 164.011C385.942 163.624 385.433 163.431 384.741 163.431C383.833 163.431 383.162 163.691 382.729 164.213C382.295 164.734 382.078 165.537 382.078 166.621V172H380.619V165.733C380.619 164.966 380.455 164.392 380.127 164.011C379.799 163.624 379.286 163.431 378.589 163.431C377.675 163.431 377.004 163.706 376.576 164.257C376.154 164.802 375.943 165.698 375.943 166.946V172H374.484V162.367H375.671L375.908 163.686H375.979C376.254 163.217 376.641 162.851 377.139 162.587C377.643 162.323 378.205 162.191 378.826 162.191C380.332 162.191 381.316 162.736 381.779 163.826H381.85C382.137 163.322 382.553 162.924 383.098 162.631C383.643 162.338 384.264 162.191 384.961 162.191C386.051 162.191 386.865 162.473 387.404 163.035C387.949 163.592 388.222 164.485 388.222 165.716V172H386.763Z" fill="#E5E5E5"/>
</svg>
