<svg width="28" height="20" viewBox="0 0 28 20" fill="none" xmlns="http://www.w3.org/2000/svg">
<rect width="20" height="20" fill="white"/>
<path d="M9.43506 4.71973V10.7246C9.43506 11.7826 9.11556 12.6141 8.47656 13.2192C7.83757 13.8244 6.95947 14.127 5.84229 14.127C4.7251 14.127 3.8597 13.8223 3.24609 13.2129C2.63672 12.6035 2.33203 11.7656 2.33203 10.6992V4.71973H3.41113V10.7754C3.41113 11.5498 3.62272 12.1444 4.0459 12.5591C4.46908 12.9738 5.09115 13.1812 5.91211 13.1812C6.69499 13.1812 7.29801 12.9738 7.72119 12.5591C8.14437 12.1401 8.35596 11.5413 8.35596 10.7627V4.71973H9.43506ZM17.7314 14L16.5762 11.0483H12.8564L11.7139 14H10.6221L14.291 4.68164H15.1987L18.8486 14H17.7314ZM16.2397 10.0771L15.1606 7.20166C15.021 6.83773 14.8771 6.39128 14.729 5.8623C14.6359 6.26855 14.5026 6.71501 14.3291 7.20166L13.2373 10.0771H16.2397Z" fill="black"/>
<path d="M25 12L22.4019 7.5L27.5981 7.5L25 12Z" fill="black"/>
</svg>
