<svg width="20" height="20" viewBox="0 0 20 20" fill="none" xmlns="http://www.w3.org/2000/svg">
<path fill-rule="evenodd" clip-rule="evenodd" d="M8.33305 14.9998C4.65115 14.9998 1.66638 12.0151 1.66638 8.33317C1.66638 4.65127 4.65115 1.6665 8.33305 1.6665C12.0149 1.6665 14.9997 4.65127 14.9997 8.33317C14.9997 9.87377 14.4771 11.2923 13.5996 12.4212L18.0889 16.9105L16.9104 18.089L12.4211 13.5997C11.2922 14.4773 9.87363 14.9998 8.33305 14.9998ZM13.3328 8.3331C13.3328 11.0945 11.0942 13.3331 8.33276 13.3331C5.57134 13.3331 3.33276 11.0945 3.33276 8.3331C3.33276 5.57168 5.57134 3.3331 8.33276 3.3331C11.0942 3.3331 13.3328 5.57168 13.3328 8.3331Z" fill="black"/>
</svg>

